<mxfile host="app.diagrams.net" modified="2023-09-29T00:20:38.896Z" agent="Mozilla/5.0 (Macintosh; Intel Mac OS X 10_15_7) AppleWebKit/605.1.15 (KHTML, like Gecko) Version/16.6 Safari/605.1.15" etag="vJmpIqpV8LGvWXt7OZJ-" version="22.0.0" type="github" pages="2">
  <diagram id="kgpKYQtTHZ0yAKxKKP6v" name="Page-1">
    <mxGraphModel dx="1158" dy="758" grid="1" gridSize="10" guides="1" tooltips="1" connect="1" arrows="1" fold="1" page="1" pageScale="1" pageWidth="850" pageHeight="1100" background="#000000" math="0" shadow="0">
      <root>
        <mxCell id="0" />
        <mxCell id="1" parent="0" />
        <mxCell id="2ql422s-yPlkNmw84_Gj-6" value="" style="edgeStyle=segmentEdgeStyle;endArrow=classic;html=1;curved=0;rounded=0;endSize=8;startSize=8;" edge="1" parent="1" target="2ql422s-yPlkNmw84_Gj-10">
          <mxGeometry width="50" height="50" relative="1" as="geometry">
            <mxPoint x="460" y="440" as="sourcePoint" />
            <mxPoint x="560" y="340" as="targetPoint" />
            <Array as="points">
              <mxPoint x="510" y="440" />
              <mxPoint x="510" y="240" />
            </Array>
          </mxGeometry>
        </mxCell>
        <mxCell id="2ql422s-yPlkNmw84_Gj-10" value="" style="swimlane;startSize=0;fontColor=none;noLabel=1;strokeColor=none;" vertex="1" parent="1">
          <mxGeometry x="800" y="230" width="170" height="210" as="geometry" />
        </mxCell>
        <mxCell id="2ql422s-yPlkNmw84_Gj-12" value="Password" style="rounded=1;whiteSpace=wrap;html=1;fillColor=#000000;labelBackgroundColor=none;labelBorderColor=none;gradientColor=none;sketch=1;curveFitting=1;jiggle=2;" vertex="1" parent="2ql422s-yPlkNmw84_Gj-10">
          <mxGeometry x="40" y="60" width="120" height="50" as="geometry" />
        </mxCell>
        <mxCell id="2ql422s-yPlkNmw84_Gj-16" style="edgeStyle=orthogonalEdgeStyle;rounded=0;orthogonalLoop=1;jettySize=auto;html=1;exitX=0.5;exitY=0;exitDx=0;exitDy=0;entryX=0.5;entryY=-0.1;entryDx=0;entryDy=0;entryPerimeter=0;" edge="1" parent="2ql422s-yPlkNmw84_Gj-10" source="2ql422s-yPlkNmw84_Gj-12" target="2ql422s-yPlkNmw84_Gj-12">
          <mxGeometry relative="1" as="geometry" />
        </mxCell>
        <mxCell id="2ql422s-yPlkNmw84_Gj-17" style="edgeStyle=orthogonalEdgeStyle;rounded=0;orthogonalLoop=1;jettySize=auto;html=1;exitX=0.5;exitY=1;exitDx=0;exitDy=0;" edge="1" parent="2ql422s-yPlkNmw84_Gj-10" source="2ql422s-yPlkNmw84_Gj-12" target="2ql422s-yPlkNmw84_Gj-12">
          <mxGeometry relative="1" as="geometry" />
        </mxCell>
        <mxCell id="2ql422s-yPlkNmw84_Gj-20" value="" style="swimlane;startSize=0;strokeColor=none;" vertex="1" parent="1">
          <mxGeometry x="810" y="630" width="190" height="380" as="geometry" />
        </mxCell>
        <mxCell id="2ql422s-yPlkNmw84_Gj-21" value="Nome de usuário" style="rounded=1;whiteSpace=wrap;html=1;fillColor=#000000;labelBackgroundColor=none;labelBorderColor=none;gradientColor=none;sketch=1;curveFitting=1;jiggle=2;" vertex="1" parent="2ql422s-yPlkNmw84_Gj-20">
          <mxGeometry x="25" y="60" width="120" height="40" as="geometry" />
        </mxCell>
        <mxCell id="2ql422s-yPlkNmw84_Gj-23" value="Email" style="rounded=1;whiteSpace=wrap;html=1;fillColor=#000000;labelBackgroundColor=none;labelBorderColor=none;gradientColor=none;sketch=1;curveFitting=1;jiggle=2;" vertex="1" parent="2ql422s-yPlkNmw84_Gj-20">
          <mxGeometry x="25" y="120" width="120" height="40" as="geometry" />
        </mxCell>
        <mxCell id="2ql422s-yPlkNmw84_Gj-24" value="Número de telefone" style="rounded=1;whiteSpace=wrap;html=1;fillColor=#000000;labelBackgroundColor=none;labelBorderColor=none;gradientColor=none;sketch=1;curveFitting=1;jiggle=2;" vertex="1" parent="2ql422s-yPlkNmw84_Gj-20">
          <mxGeometry x="25" y="190" width="120" height="40" as="geometry" />
        </mxCell>
        <mxCell id="2ql422s-yPlkNmw84_Gj-25" value="Password" style="rounded=1;whiteSpace=wrap;html=1;fillColor=#000000;labelBackgroundColor=none;labelBorderColor=none;gradientColor=none;sketch=1;curveFitting=1;jiggle=2;" vertex="1" parent="2ql422s-yPlkNmw84_Gj-20">
          <mxGeometry x="25" y="260" width="120" height="40" as="geometry" />
        </mxCell>
        <mxCell id="A98R-v6a7x3lPAm8_0wS-1" value="" style="verticalLabelPosition=bottom;verticalAlign=top;html=1;shadow=0;dashed=0;strokeWidth=1;shape=mxgraph.android.phone2;strokeColor=#c0c0c0;align=center;fontFamily=Helvetica;fontSize=12;fontColor=#f4a4c0;fillColor=#9E6F3F;gradientColor=none;" vertex="1" parent="2ql422s-yPlkNmw84_Gj-20">
          <mxGeometry x="-15" y="-10" width="200" height="390" as="geometry" />
        </mxCell>
        <mxCell id="2ql422s-yPlkNmw84_Gj-27" value="" style="endArrow=none;html=1;rounded=0;" edge="1" parent="1">
          <mxGeometry width="50" height="50" relative="1" as="geometry">
            <mxPoint x="900" y="620" as="sourcePoint" />
            <mxPoint x="900" y="460" as="targetPoint" />
            <Array as="points">
              <mxPoint x="900" y="540" />
            </Array>
          </mxGeometry>
        </mxCell>
        <mxCell id="2ql422s-yPlkNmw84_Gj-30" value="" style="verticalLabelPosition=bottom;verticalAlign=top;html=1;shadow=1;dashed=0;strokeWidth=1;shape=mxgraph.android.phone2;strokeColor=#825B34;fillColor=#9E6F3F;fontColor=#f4a4c0;gradientColor=none;" vertex="1" parent="1">
          <mxGeometry x="255" y="300" width="210" height="390" as="geometry" />
        </mxCell>
        <mxCell id="2ql422s-yPlkNmw84_Gj-31" value="LOGIN" style="rounded=1;whiteSpace=wrap;html=1;labelBackgroundColor=none;labelBorderColor=none;fillColor=#000000;gradientColor=none;sketch=1;curveFitting=1;jiggle=2;" vertex="1" parent="1">
          <mxGeometry x="280" y="420" width="160" height="40" as="geometry" />
        </mxCell>
        <mxCell id="2ql422s-yPlkNmw84_Gj-32" value="REGISTAR" style="rounded=1;whiteSpace=wrap;html=1;shadow=0;strokeColor=default;glass=0;sketch=1;curveFitting=1;jiggle=2;fillColor=#000000;labelBackgroundColor=none;" vertex="1" parent="1">
          <mxGeometry x="280" y="510" width="160" height="40" as="geometry" />
        </mxCell>
        <mxCell id="2ql422s-yPlkNmw84_Gj-34" value="" style="verticalLabelPosition=bottom;verticalAlign=top;html=1;shadow=1;dashed=0;strokeWidth=1;shape=mxgraph.android.phone2;strokeColor=#825B34;fillColor=#9E6F3F;fontColor=#f4a4c0;labelBackgroundColor=#000000;fillStyle=solid;gradientColor=none;" vertex="1" parent="1">
          <mxGeometry x="800" y="60" width="200" height="390" as="geometry" />
        </mxCell>
        <mxCell id="2ql422s-yPlkNmw84_Gj-13" value="Email" style="rounded=1;whiteSpace=wrap;html=1;sketch=1;curveFitting=1;jiggle=2;labelBackgroundColor=none;fillColor=#000000;labelBorderColor=none;gradientColor=none;" vertex="1" parent="1">
          <mxGeometry x="840" y="180" width="120" height="50" as="geometry" />
        </mxCell>
        <mxCell id="2ql422s-yPlkNmw84_Gj-14" style="edgeStyle=orthogonalEdgeStyle;rounded=0;orthogonalLoop=1;jettySize=auto;html=1;exitX=0.5;exitY=1;exitDx=0;exitDy=0;" edge="1" parent="1" source="2ql422s-yPlkNmw84_Gj-13" target="2ql422s-yPlkNmw84_Gj-13">
          <mxGeometry relative="1" as="geometry" />
        </mxCell>
      </root>
    </mxGraphModel>
  </diagram>
  <diagram id="PZuyhclzxS1qI-OpDxxj" name="Page-2">
    <mxGraphModel dx="984" dy="644" grid="1" gridSize="10" guides="1" tooltips="1" connect="1" arrows="1" fold="1" page="1" pageScale="1" pageWidth="827" pageHeight="1169" math="0" shadow="0">
      <root>
        <mxCell id="0" />
        <mxCell id="1" parent="0" />
      </root>
    </mxGraphModel>
  </diagram>
</mxfile>
